<?xml version="1.0" standalone="no"?>
<!DOCTYPE svg PUBLIC "-//W3C//DTD SVG 20010904//EN"
 "http://www.w3.org/TR/2001/REC-SVG-20010904/DTD/svg10.dtd">
<svg version="1.0" xmlns="http://www.w3.org/2000/svg"
 width="1280.000000pt" height="844.000000pt" viewBox="0 0 1280.000000 844.000000"
 preserveAspectRatio="xMidYMid meet">
<metadata>
Created by potrace 1.15, written by Peter Selinger 2001-2017
</metadata>
<g transform="translate(0.000000,844.000000) scale(0.100000,-0.100000)"
fill="#000000" stroke="none">
<path d="M1615 8434 c-415 -24 -697 -75 -800 -145 -56 -38 -78 -95 -73 -187
10 -171 122 -340 306 -464 160 -107 182 -136 121 -157 -44 -15 -218 -14 -449
4 -240 18 -315 31 -388 69 -39 20 -52 43 -52 93 -1 45 -13 64 -57 86 -69 36
-205 7 -219 -48 -9 -37 13 -80 65 -126 88 -78 206 -131 411 -184 111 -29 140
-40 140 -54 0 -4 -28 -23 -62 -41 -167 -87 -325 -229 -374 -333 -37 -81 -29
-150 21 -177 54 -29 156 71 171 165 15 104 113 193 329 300 293 145 488 173
550 79 8 -13 20 -59 25 -102 12 -95 41 -185 80 -246 33 -52 66 -72 103 -62 36
9 41 47 17 136 -46 169 -47 199 -15 277 17 41 35 36 74 -21 35 -51 122 -267
129 -318 4 -35 1 -42 -32 -72 -43 -40 -46 -68 -15 -171 44 -145 36 -164 -51
-126 -27 11 -65 21 -85 21 -44 0 -226 -89 -249 -122 -53 -76 25 -206 146 -243
76 -23 246 -30 379 -15 138 15 230 33 504 101 194 48 219 52 335 53 171 1 218
-23 240 -121 10 -41 3 -87 -41 -273 -67 -285 -108 -427 -139 -478 -24 -39 -72
-62 -132 -62 -24 -1 -65 -9 -93 -19 -129 -48 -483 -203 -581 -255 -691 -365
-1239 -1062 -1414 -1800 -68 -287 -78 -612 -25 -861 14 -66 92 -326 137 -460
98 -288 481 -780 727 -935 39 -25 133 -85 208 -133 155 -100 235 -143 342
-181 40 -14 136 -55 213 -91 161 -75 272 -111 489 -160 85 -19 207 -51 270
-71 109 -34 116 -35 164 -23 59 16 191 15 272 -1 31 -7 95 -13 142 -13 73 -1
100 3 180 32 93 32 94 32 140 16 106 -38 141 -44 192 -35 70 14 114 36 165 86
34 34 58 47 116 64 101 29 241 83 383 148 195 88 256 112 285 112 18 0 47 -15
78 -40 79 -62 175 -118 337 -195 390 -187 836 -337 1145 -385 222 -34 249 -38
385 -61 72 -12 155 -29 185 -40 57 -19 122 -29 355 -54 188 -20 251 -37 295
-80 38 -37 58 -43 78 -23 10 10 115 15 420 19 430 7 492 12 532 38 20 12 54
16 160 17 121 1 149 5 275 38 77 20 209 50 294 66 308 60 309 60 774 292 415
206 459 231 529 295 25 23 59 45 75 48 46 10 65 20 133 71 124 94 529 505 686
699 100 123 199 279 316 499 160 302 259 568 279 748 5 49 20 119 33 157 37
106 50 238 43 440 -7 201 -25 337 -68 499 -43 166 -41 186 25 264 30 35 66 90
80 123 15 33 63 125 106 205 134 246 220 470 297 770 77 303 107 501 107 720
1 190 -10 242 -60 295 -23 25 -35 49 -40 83 -27 183 -249 548 -464 762 -79 79
-121 105 -182 115 -21 3 -52 19 -70 35 -65 59 -232 88 -401 70 -125 -14 -191
-32 -282 -77 -194 -96 -330 -245 -371 -403 -19 -76 -9 -143 32 -203 97 -143
324 -46 352 151 5 32 14 50 32 63 114 85 445 5 584 -141 228 -239 271 -847 94
-1340 -58 -163 -182 -370 -221 -370 -51 0 -133 78 -212 201 -112 173 -139 210
-238 319 -179 198 -382 384 -496 456 -35 21 -100 63 -144 93 -106 71 -404 216
-487 237 -36 9 -111 36 -167 60 -163 71 -240 84 -638 114 -77 6 -169 15 -205
21 -59 10 -70 9 -105 -8 -47 -23 -97 -37 -217 -58 -114 -20 -200 -47 -323
-100 -55 -24 -128 -51 -163 -59 -168 -44 -618 -280 -816 -428 -226 -169 -686
-638 -761 -775 -48 -89 -93 -94 -198 -19 -182 129 -905 430 -1227 511 -295 74
-671 118 -1015 119 l-240 1 -59 -28 c-35 -16 -63 -24 -69 -18 -30 30 -33 158
-11 406 22 249 29 570 15 737 -37 441 -105 744 -176 776 -18 8 -26 22 -31 53
-22 134 -468 553 -670 629 -139 51 -334 88 -619 116 -141 14 -772 26 -910 18z
m545 -1264 c242 -86 325 -122 362 -157 29 -28 36 -69 18 -103 -27 -51 -249
-147 -392 -170 -136 -22 -189 3 -208 98 -7 31 -38 113 -70 182 -66 142 -76
179 -60 211 21 39 113 23 350 -61z m7465 -1874 c50 -9 119 -26 155 -36 68 -20
251 -126 393 -227 194 -138 523 -503 543 -601 5 -22 1 -34 -16 -50 -76 -71
-439 -108 -953 -99 -360 7 -366 7 -982 97 -426 62 -470 70 -512 98 -56 36 -15
126 121 269 210 220 502 436 653 483 70 21 116 43 153 72 23 19 37 20 190 15
91 -2 206 -12 255 -21z m-5060 -626 c104 -12 280 -45 480 -91 77 -17 151 -34
165 -36 197 -39 713 -216 861 -295 40 -21 59 -37 59 -50 0 -60 -125 -230 -460
-628 -128 -151 -284 -342 -348 -425 -147 -190 -245 -306 -280 -332 -43 -32
-122 -69 -175 -82 -66 -16 -83 -5 -92 61 -10 70 -39 133 -115 248 -94 141
-362 700 -448 935 -142 385 -137 575 18 659 78 42 179 53 335 36z m-1893 -440
c9 -25 40 -142 68 -260 76 -320 162 -617 230 -795 21 -55 54 -147 75 -205 43
-119 110 -259 159 -328 18 -26 59 -94 91 -152 32 -58 117 -193 190 -300 163
-243 185 -280 188 -327 2 -34 -1 -40 -33 -55 -37 -17 -474 -68 -585 -68 -50 0
-67 5 -104 30 -26 18 -57 30 -76 30 -48 0 -208 43 -315 85 -156 61 -418 192
-520 260 -204 136 -332 319 -392 561 -32 134 -31 349 5 500 64 276 189 497
407 715 136 137 253 221 426 310 128 65 161 65 186 -1z m4924 -559 c38 -11
116 -33 174 -50 633 -187 1545 -293 2160 -251 277 19 399 43 633 121 245 83
322 83 357 -1 25 -61 -17 -228 -109 -438 -84 -190 -232 -481 -280 -548 -71
-102 -138 -171 -385 -401 -306 -286 -320 -295 -505 -365 -318 -120 -750 -224
-1081 -262 -430 -49 -854 -41 -1283 24 -146 22 -208 37 -357 85 -58 19 -129
37 -158 41 -31 4 -85 23 -130 47 -42 22 -114 59 -159 82 -45 24 -120 53 -165
65 -101 27 -134 46 -147 82 -27 78 92 253 524 768 231 275 388 484 584 778 91
136 140 196 186 224 38 23 55 23 141 -1z"/>
</g>
</svg>
